<svg version="1.1" id="Layer_1" xmlns="http://www.w3.org/2000/svg" xmlns:xlink="http://www.w3.org/1999/xlink" x="0px" y="0px"
	 width="100%" viewBox="0 0 2956 739" enable-background="new 0 0 2956 739" xml:space="preserve">
<path fill="#01B08A" opacity="1.000000" stroke="none" 
	d="
M53.366455,643.621948 
	C31.618057,613.498413 21.621462,580.082275 20.701317,543.389526 
	C19.760387,505.867767 25.330610,469.793701 40.912315,435.480957 
	C63.960064,384.727142 102.591042,350.828583 154.175079,331.066345 
	C158.679581,329.340637 161.520020,326.890076 163.559647,322.371277 
	C183.378235,278.463196 212.692032,242.607010 254.215240,217.485199 
	C289.849854,195.926010 328.540100,188.331589 369.719269,193.821655 
	C380.896301,195.311768 391.960693,197.804520 402.967712,200.315308 
	C406.276489,201.070053 407.654449,200.114349 409.415222,197.679886 
	C421.990570,180.292816 433.664124,162.113495 447.586395,145.867432 
	C486.455170,100.510872 535.261780,71.425575 594.338989,60.435425 
	C619.601257,55.735882 645.080872,55.941597 670.513733,58.307774 
	C722.244507,63.120605 770.266541,79.328011 814.219788,107.037895 
	C823.317749,112.773575 831.417419,120.120262 839.782959,126.961975 
	C841.104004,128.042328 842.050415,130.386078 842.056580,132.149597 
	C842.176819,166.481018 842.133179,200.813004 842.101868,235.144852 
	C842.101501,235.559875 841.823364,235.974640 841.443054,237.037033 
	C838.441406,232.466492 835.732666,228.367737 833.049438,224.252411 
	C796.021545,167.463516 743.464172,135.151291 676.824463,124.803268 
	C641.509521,119.319450 606.726746,120.335289 573.100037,133.427658 
	C534.892273,148.303619 505.128876,174.077057 480.998840,206.776917 
	C463.740143,230.165024 452.132874,256.427795 442.013763,283.447937 
	C441.272949,285.426056 440.435211,287.367889 439.438873,289.829865 
	C430.480499,284.871979 421.950073,280.066467 413.342438,275.403473 
	C390.321564,262.932465 365.805298,256.516907 339.532562,257.878357 
	C309.163818,259.452087 283.787140,272.428223 262.290955,293.229065 
	C237.913406,316.818115 221.348572,345.063721 214.019897,378.382935 
	C212.893219,383.505402 209.307236,384.240936 205.241577,384.834076 
	C179.385498,388.606201 156.612473,399.229248 136.562012,415.840942 
	C110.361214,437.548157 95.875877,465.848236 90.053017,498.953186 
	C85.800880,523.127930 84.521072,547.339478 91.565414,571.207092 
	C102.402756,607.926025 127.913963,631.054626 162.069107,645.873535 
	C175.164413,651.555298 188.594009,654.234253 203.154114,654.212708 
	C414.146912,653.901184 625.140320,653.999268 836.133606,653.999268 
	C838.100159,653.999268 840.066772,653.999268 842.293884,653.999268 
	C842.293884,676.157837 842.293884,697.911987 842.293884,720.163818 
	C839.924438,720.163818 837.798096,720.163879 835.671692,720.163879 
	C622.011841,720.163879 408.351807,720.043823 194.692429,720.364624 
	C175.088165,720.394043 156.841110,716.744324 138.953796,709.203491 
	C104.800926,694.805542 75.644455,674.037842 53.366455,643.621948 
z"/>
<path fill="#01B08A" opacity="1.000000" stroke="none" 
	d="
M1974.452637,586.548706 
	C1948.868164,546.650024 1933.034302,503.496796 1928.332520,456.735077 
	C1919.618042,370.065613 1943.167114,292.893494 1999.849976,226.612488 
	C2044.739868,174.121063 2101.534912,140.433029 2169.385498,127.510986 
	C2259.658203,110.318604 2342.166260,129.742981 2414.682617,186.477234 
	C2475.346924,233.938950 2513.385254,296.333435 2525.494141,372.439453 
	C2542.355713,478.420624 2511.339355,569.716248 2433.795654,644.048767 
	C2387.106445,688.804504 2330.712646,715.915894 2266.394043,722.537781 
	C2142.741943,735.268494 2045.475098,688.906311 1974.452637,586.548706 
M2273.406494,645.003845 
	C2274.702393,644.706116 2275.996338,644.399048 2277.294434,644.112061 
	C2377.955811,621.862793 2454.333252,531.897034 2454.392822,423.142120 
	C2454.411865,388.684418 2446.664795,355.925354 2431.707520,324.808563 
	C2389.769775,237.562439 2293.902832,185.757187 2198.380371,199.236893 
	C2140.005127,207.474579 2091.419922,234.138565 2054.063965,279.706726 
	C2010.599854,332.725800 1994.425415,393.810883 2005.484863,461.424591 
	C2013.617065,511.141785 2036.568481,553.692688 2073.655518,587.812866 
	C2130.238770,639.869629 2196.859375,658.635010 2273.406494,645.003845 
z"/>
<path fill="#C0C0C0" opacity="1.000000" stroke="none"
	d="
M1460.832764,287.999939 
	C1460.832764,207.223999 1460.832764,126.948059 1460.832764,46.415932 
	C1483.070801,46.415932 1504.843872,46.415932 1527.307861,46.415932 
	C1527.307861,145.844711 1527.307861,245.330948 1527.307861,345.933685 
	C1529.250488,344.438568 1530.280518,343.752045 1531.189209,342.931213 
	C1578.678711,300.025299 1634.448730,280.096069 1698.248779,284.281708 
	C1795.749268,290.678253 1878.108154,363.048950 1898.136108,458.989319 
	C1923.192871,579.018494 1847.804565,695.891052 1727.584961,721.549744 
	C1608.141113,747.042908 1495.547119,671.957458 1466.985718,559.246643 
	C1461.642578,538.161682 1458.961548,516.764893 1460.810547,494.958618 
	C1460.922729,493.634766 1460.834595,492.293671 1460.834473,490.960602 
	C1460.834351,423.473724 1460.833618,355.986847 1460.832764,287.999939 
M1822.867432,571.288391 
	C1832.494385,550.651245 1837.796997,528.909668 1837.734985,506.178894 
	C1837.610107,460.392731 1820.869141,421.453888 1787.302734,390.247650 
	C1726.111694,333.359009 1630.413452,335.576691 1571.692505,394.913361 
	C1523.325562,443.787384 1512.517334,516.989075 1544.688599,577.806335 
	C1575.229492,635.541565 1640.818970,669.036621 1704.798950,658.653748 
	C1758.619141,649.919617 1797.792969,620.564270 1822.867432,571.288391 
z"/>
<path fill="#01B08A" opacity="1.000000" stroke="none" 
	d="
M2927.852539,524.215637 
	C2935.331299,565.059753 2931.356201,603.966736 2911.350342,640.359375 
	C2889.275391,680.515686 2854.904297,705.461548 2811.197266,717.121643 
	C2754.685303,732.197632 2698.807373,730.765503 2644.872070,706.005859 
	C2608.787598,689.440979 2579.796875,664.226624 2557.430420,631.416016 
	C2556.399658,629.903625 2555.442871,628.339478 2554.486572,626.778137 
	C2554.235596,626.368652 2554.115723,625.878906 2553.712402,624.865234 
	C2575.572021,612.683838 2597.449219,600.492615 2618.596436,588.708130 
	C2627.025391,597.700134 2634.595459,607.074341 2643.464844,614.993347 
	C2669.615723,638.342163 2700.728516,649.391296 2735.637939,650.162659 
	C2757.605225,650.648071 2779.280762,648.772400 2799.955078,640.812744 
	C2829.823975,629.313416 2849.585693,608.764465 2854.218018,576.253052 
	C2859.017090,542.573853 2849.488770,514.392090 2820.354736,494.461121 
	C2798.465576,479.486298 2773.999023,470.573456 2748.606934,464.072937 
	C2721.235596,457.065704 2693.641602,450.951996 2667.416504,440.050873 
	C2640.768555,428.973816 2615.854004,415.083069 2594.958252,394.928894 
	C2561.175537,362.344818 2545.431885,322.718567 2549.751221,275.638397 
	C2553.029053,239.912735 2565.104248,207.616989 2588.357666,179.999481 
	C2611.938232,151.993713 2642.352539,134.843124 2677.675293,126.729881 
	C2731.261719,114.421722 2784.190918,116.353912 2835.296143,138.074585 
	C2874.542969,154.755188 2904.947754,181.805679 2925.625488,219.383789 
	C2926.417236,220.822433 2927.067139,222.339081 2928.023926,224.317184 
	C2904.769287,234.214035 2881.745117,244.012848 2858.802490,253.776901 
	C2834.630615,215.177017 2798.032471,199.177429 2754.435303,195.838409 
	C2729.270752,193.911133 2704.519043,195.818802 2680.758545,204.966812 
	C2646.191650,218.275406 2626.044922,248.381836 2624.622803,285.454559 
	C2623.601074,312.102112 2635.293701,331.464020 2655.380371,346.974518 
	C2676.404297,363.208527 2700.704102,372.677399 2725.924072,379.909027 
	C2749.074951,386.547363 2772.611328,391.909729 2795.568848,399.134766 
	C2824.953613,408.382629 2852.331787,421.951416 2876.320312,441.686401 
	C2902.619629,463.322449 2920.461182,490.264984 2927.852539,524.215637 
z"/>
<path fill="#C0C0C0" opacity="1.000000" stroke="none"
	d="
M1021.376404,383.398773 
	C1059.965698,325.248901 1113.381958,290.543457 1182.364380,282.473114 
	C1250.704346,274.477936 1310.733765,294.827484 1360.869629,342.186920 
	C1400.942749,380.040863 1423.082275,427.040161 1428.776611,481.792175 
	C1429.515747,488.899475 1429.791016,496.084473 1429.798218,503.233917 
	C1429.870239,574.894287 1429.841064,646.554626 1429.840332,718.215027 
	C1429.840332,719.523926 1429.840332,720.832825 1429.840332,722.490967 
	C1407.461060,722.490967 1385.414673,722.490967 1362.941650,722.490967 
	C1362.941650,702.160461 1362.941650,681.930176 1362.941650,660.701416 
	C1360.657349,662.655701 1359.054443,663.958862 1357.526367,665.344482 
	C1318.066528,701.126343 1271.810425,720.734924 1218.546021,723.131775 
	C1109.186890,728.052673 1013.005615,653.578613 991.392517,546.536743 
	C979.688538,488.571289 989.922913,434.076874 1021.376404,383.398773 
M1164.868164,651.734070 
	C1186.464111,657.717712 1208.299072,659.380493 1230.574097,656.209167 
	C1316.787720,643.934326 1376.498413,562.059204 1361.824097,476.016968 
	C1347.354126,391.173035 1266.218140,334.050385 1181.250366,348.886627 
	C1100.130371,363.050995 1042.777466,439.482056 1054.009888,520.695374 
	C1063.152466,586.797546 1101.124512,629.987976 1164.868164,651.734070 
z"/>
<path fill="#C0C0C0" opacity="1.000000" stroke="none"
	d="
M884.000488,83.000000 
	C884.000488,70.026436 884.000488,57.552872 884.000488,44.800255 
	C906.414185,44.800255 928.472168,44.800255 950.758301,44.800255 
	C950.758301,270.301636 950.758301,495.714722 950.758301,721.304382 
	C928.555786,721.304382 906.593689,721.304382 884.000488,721.304382 
	C884.000488,508.682739 884.000488,296.091370 884.000488,83.000000 
z"/>
</svg>