<?xml version="1.0" encoding="utf-8"?>
<svg xmlns="http://www.w3.org/2000/svg" width="215" height="41" viewBox="0 0 215 41">
  <!-- Microsoft Logo -->
  <path d="M19.5 17h-9v9h9v-9z" fill="#f25022"/>
  <path d="M19.5 7h-9v9h9V7z" fill="#00a4ef"/>
  <path d="M9.5 17h-9v9h9v-9z" fill="#7fba00"/>
  <path d="M9.5 7h-9v9h9V7z" fill="#ffb900"/>
  <!-- "Sign in with Microsoft" text -->
  <path d="M40 17.5c0-4.7 3.5-8.5 8.2-8.5 2.4 0 4.6 1 6.2 2.6l-2.1 2.1c-1.1-1.1-2.5-1.7-4.1-1.7-3.1 0-5.5 2.4-5.5 5.5s2.4 5.5 5.5 5.5c2.2 0 4.1-1.3 4.9-3.2h-5.4v-3h8.7v1.5c0 4.7-3.5 8.5-8.2 8.5-4.7 0-8.2-3.8-8.2-8.5z" fill="#5E5E5E"/>
  <path d="M67.3 26h-3.2l-6.3-16.8h3.8l4.4 12.7 4.4-12.7h3.8L67.3 26z" fill="#5E5E5E"/>
  <path d="M76.8 26V9.2h3.4V26h-3.4z" fill="#5E5E5E"/>
  <path d="M90.8 26.3c-4.7 0-8.2-3.8-8.2-8.5s3.5-8.5 8.2-8.5 8.2 3.8 8.2 8.5-3.5 8.5-8.2 8.5zm0-14c-3.1 0-5.5 2.4-5.5 5.5s2.4 5.5 5.5 5.5 5.5-2.4 5.5-5.5-2.4-5.5-5.5-5.5z" fill="#5E5E5E"/>
  <path d="M115.1 26l-3.4-5.1h-3.6V26h-3.4V9.2h7.9c3.2 0 5.4 2.2 5.4 5.4 0 2.5-1.5 4.3-3.6 5l3.8 5.7h-3.9zm-7-11.8v3.9h4.5c1.4 0 2.2-.9 2.2-2s-.8-2-2.2-2h-4.5z" fill="#5E5E5E"/>
</svg> 